# File created by Blade
# Date/Time:  Thu Sep 25 19:43:58 2014
# Frame Rate: 120.000 fps
#------------------------------------------------------
:FULLY-SPECIFIED
:DEGREES
1048
root 0.558162 17.709754 -9.660057 36.968233 42.990396 -10.613617
Spine 18.805500 1.580451 -36.048628
Head -35.344490 -12.061334 26.518197
LeftShoulder 5.578708 3.538761 21.041817
LeftArm 39.723563 6.034619 -28.220347
LeftForeArm 13.689978 -0.000000 18.777317
LeftHand -35.525325 0.000000 47.791853
LeftHandThumb1 -26.253704 0.000000 33.147579
RightShoulder -15.001151 18.924185 -41.359727
RightArm 47.917724 41.551894 34.910835
RightForeArm 20.540585 -0.000000 24.770014
RightHand 3.077547 -0.000000 -4.379992
RightHandThumb1 -24.326973 -0.000000 -32.862282
LeftUpLeg -132.165135 23.412991 -5.273536
LeftLeg 99.216710 -0.000000 -0.000000
LeftFoot -13.688744 -27.183519 -21.474828
LeftToeBase 8.726667 -0.000000 -0.000000
RightUpLeg -9.684148 -27.203623 -30.761636
RightLeg 17.729483 -0.000000 -0.000000
RightFoot -11.858336 -38.541963 28.921095
RightToeBase 9.667888 -0.000000 -0.000000
1049
root 0.479866 17.848880 -9.634149 37.317549 43.202637 -10.419307
Spine 18.801036 1.484995 -35.872999
Head -36.091018 -12.058284 26.860742
LeftShoulder 5.415054 3.660552 21.107889
LeftArm 40.154432 5.747898 -27.883646
LeftForeArm 13.501238 -0.000000 18.733485
LeftHand -34.607475 -0.000000 44.798909
LeftHandThumb1 -26.253704 0.000000 33.147579
RightShoulder -15.061982 18.689073 -41.110871
RightArm 47.340996 41.408588 34.540790
RightForeArm 20.793811 -0.000000 24.239917
RightHand 3.162700 -0.000000 -4.455186
RightHandThumb1 -24.326973 -0.000000 -32.862282
LeftUpLeg -131.893009 23.272400 -5.289476
LeftLeg 98.412218 -0.000000 -0.000000
LeftFoot -13.262941 -27.306781 -22.006789
LeftToeBase 9.155491 -0.000000 -0.000000
RightUpLeg -9.776372 -27.451006 -30.452134
RightLeg 17.437283 -0.000000 -0.000000
RightFoot -12.039269 -38.628947 29.521223
RightToeBase 9.703216 -0.000000 -0.000000
1050
root 0.407592 17.982492 -9.605947 37.615378 43.382362 -10.213907
Spine 18.834371 1.421275 -35.726428
Head -36.878917 -11.976971 27.256501
LeftShoulder 5.308994 3.328613 21.254464
LeftArm 40.221990 5.704525 -27.878665
LeftForeArm 13.373217 0.000000 18.786828
LeftHand -33.745200 -0.000000 41.276602
LeftHandThumb1 -26.253704 0.000000 33.147579
RightShoulder -15.094114 18.350594 -40.781387
RightArm 46.943609 41.465081 34.325968
RightForeArm 20.790650 -0.000000 23.746741
RightHand 3.015947 -0.000000 -4.625621
RightHandThumb1 -24.326973 -0.000000 -32.862282
LeftUpLeg -131.528720 23.177390 -5.296798
LeftLeg 97.598288 -0.000000 -0.000000
LeftFoot -12.921960 -27.570727 -22.362932
LeftToeBase 9.416009 -0.000000 -0.000000
RightUpLeg -9.816411 -27.750810 -30.206536
RightLeg 17.149037 -0.000000 -0.000000
RightFoot -12.002563 -38.695309 30.026924
RightToeBase 9.649650 -0.000000 -0.000000
1051
root 0.334359 18.113057 -9.578094 37.914400 43.544993 -9.966737
Spine 18.907603 1.535746 -35.575762
Head -37.843508 -12.054438 27.777355
LeftShoulder 5.241802 3.482605 21.436930
LeftArm 40.743984 5.154835 -27.743821
LeftForeArm 13.012945 -0.000000 18.741336
LeftHand -32.677415 0.000000 37.962839
LeftHandThumb1 -26.253704 0.000000 33.147579
RightShoulder -15.269610 17.985484 -40.500732
RightArm 46.240075 41.324176 33.687697
RightForeArm 21.031099 0.000000 23.134303
RightHand 3.318751 0.000000 -4.885079
RightHandThumb1 -24.326973 -0.000000 -32.862282
LeftUpLeg -131.181134 23.062297 -5.345869
LeftLeg 96.841628 -0.000000 -0.000000
LeftFoot -12.460752 -27.659582 -22.599029
LeftToeBase 9.346291 -0.000000 -0.000000
RightUpLeg -9.832401 -28.054492 -30.027702
RightLeg 16.905904 -0.000000 -0.000000
RightFoot -11.957454 -38.682139 30.570897
RightToeBase 9.563821 -0.000000 -0.000000
